inDegrees=no
num_controls=7
num_derivatives=13
num_iterations=100
num_multipliers=7
num_parameters=0
num_slacks=7
num_states=26
objective=0.497043
objective_accelerations=0.031887
objective_balance=0.003393
objective_effort=0.034969
objective_height=0.421303
objective_ligament=0.005491
solver_duration=1147.624048
status=Solve_Succeeded
success=true
DataType=double
version=3
OpenSimVersion=4.5
endheader
time	/jointset/ground_pelvis/pelvis_tilt/value	/jointset/ground_pelvis/pelvis_tx/value	/jointset/ground_pelvis/pelvis_ty/value	/jointset/hip_r/hip_flexion_r/value	/jointset/hip_r/hip_adduction_r/value	/jointset/hip_r/hip_rotation_r/value	/jointset/back/lumbar_extension/value	/jointset/patellofemoral_r/patellar_flexion_r/value	/jointset/knee_r/knee_flexion_r/value	/jointset/knee_r/knee_adduction_r/value	/jointset/knee_r/knee_rotation_r/value	/jointset/ankle_r/ankle_angle_r/value	/jointset/subtalar_r/subtalar_angle_r/value	/jointset/ground_pelvis/pelvis_tilt/speed	/jointset/ground_pelvis/pelvis_tx/speed	/jointset/ground_pelvis/pelvis_ty/speed	/jointset/hip_r/hip_flexion_r/speed	/jointset/hip_r/hip_adduction_r/speed	/jointset/hip_r/hip_rotation_r/speed	/jointset/back/lumbar_extension/speed	/jointset/patellofemoral_r/patellar_flexion_r/speed	/jointset/knee_r/knee_flexion_r/speed	/jointset/knee_r/knee_adduction_r/speed	/jointset/knee_r/knee_rotation_r/speed	/jointset/ankle_r/ankle_angle_r/speed	/jointset/subtalar_r/subtalar_angle_r/speed	/forceset/tau_hip_flexion_r	/forceset/tau_hip_adduction_r	/forceset/tau_hip_rotation_r	/forceset/tau_knee_flexion_r	/forceset/tau_ankle_angle_r	/forceset/tau_subtalar_angle_r	/forceset/tau_lumbar_extension	lambda_cid13_p0	lambda_cid14_p0	lambda_cid14_p1	lambda_cid14_p2	lambda_cid14_p3	lambda_cid14_p4	lambda_cid14_p5	/jointset/ground_pelvis/pelvis_tilt/accel	/jointset/ground_pelvis/pelvis_tx/accel	/jointset/ground_pelvis/pelvis_ty/accel	/jointset/hip_r/hip_flexion_r/accel	/jointset/hip_r/hip_adduction_r/accel	/jointset/hip_r/hip_rotation_r/accel	/jointset/back/lumbar_extension/accel	/jointset/patellofemoral_r/patellar_flexion_r/accel	/jointset/knee_r/knee_flexion_r/accel	/jointset/knee_r/knee_adduction_r/accel	/jointset/knee_r/knee_rotation_r/accel	/jointset/ankle_r/ankle_angle_r/accel	/jointset/subtalar_r/subtalar_angle_r/accel	gamma_cid13_p0	gamma_cid14_p0	gamma_cid14_p1	gamma_cid14_p2	gamma_cid14_p3	gamma_cid14_p4	gamma_cid14_p5
0	-0.006514662353182151	0.09625993304678261	0.9427241849576652	0.1762555222360518	-0.2321516599909861	-0.2616395576581301	-0.038598046466844	0.07317863873449211	0.07317863873451017	0.1745305472435613	0.1745315684825823	0.03247278518263602	-0.003450885010899928	0	0	0	0	0	0	0	0	0	0	0	0	0	0.205258865534394	-0.1422706937584387	-0.04021105112801472	-0.3797547367892739	0.3701683151847651	-0.1495833578042067	-0.1056223559021237	-39.07614953117886	69.02190630797855	-43.01208212734379	-3.952913297536684	-27.66167158652512	-678.7380795043852	47.83283883441194	-1.070368643501169	-0.9516996759969525	-0.4786635090896471	7.299562707619315	0.2063547642192258	2.324884948848834	-4.901238125236815	8.460189476809431	8.460189476806159	-2.704043436033953	0.07740975470544958	3.02778576705631	0.8979874216812003	8.903996665329328e-08	5.821396120451077e-08	-5.854779744283779e-07	1.680951705383788e-07	1.902463645393589e-08	6.066178558837507e-08	-2.652173601164867e-07
0.01	-0.006563788936116864	0.09621581498393268	0.9427013225921427	0.176605819946451	-0.2321401726420932	-0.2615158234909879	-0.03884295749503321	0.07358973192958887	0.07358973192960638	0.1743953663898399	0.1745246685055346	0.03262410390538126	-0.003404847372529781	-0.009870163020926534	-0.008502176838424842	-0.00455582330202146	0.06949271683621928	0.002243358909350485	0.02457573249142541	-0.04848043616129399	0.08186547945340013	0.08186547945339083	-0.02680930240041507	-0.001302438321627095	0.03046627371093106	0.00920020711047707	0.2098075430239971	-0.1608605128622876	-0.04220526226861013	-0.3948930118884904	0.394054579274831	-0.1401915619517857	-0.1075796529334897	-39.08976192506836	77.12358447129093	-37.61642203787637	-4.696916268142447	-36.12327498848983	-679.7821186390266	59.55598397785513	-0.9520632861797107	-0.7512575212774641	-0.4415321380869706	6.689106931817348	0.2251440125771481	2.498295031413733	-4.74618094119333	7.996735436459215	7.996735436459929	-2.635419550069414	-0.2223852599515671	3.086444646472261	0.9298660190176647	1.188256649428157e-07	5.861251505745036e-08	-7.887438171213701e-07	1.833937079673403e-07	5.201477017969552e-08	-9.91113671795526e-08	-3.542135536208635e-07
0.02	-0.006712961780193681	0.09609631898599776	0.942633403914134	0.1776340409772684	-0.2321078881924508	-0.2611514564725082	-0.03955761980075573	0.07480888157058992	0.0748088815705879	0.1739988833304851	0.1745070812184239	0.03308616465990861	-0.003267041930397424	-0.02000925223358502	-0.01507558701700422	-0.009011262497250009	0.1355846640802118	0.004159420150067591	0.04812657026782331	-0.09395025550737786	0.1616112891809561	0.1616112891809551	-0.05226044112179357	-0.00213746201744358	0.06214840635629995	0.01835356075242343	0.2143562205135665	-0.1794503319661307	-0.04419947340923864	-0.4100312869877318	0.417940843364882	-0.1307997660993617	-0.1095369499648726	-39.12993547632006	85.30047617538102	-32.23088028889335	-5.412703974370472	-44.75967956906041	-679.6837495371144	71.05051256699413	-1.124153881848201	-0.5659463440272061	-0.4585866877310859	6.619408789173814	0.1408952304924915	2.119906005843335	-4.299114762195163	8.036255531640496	8.036255531640752	-2.43241070022649	0.1708926798675807	3.270957553944582	0.8886167279751619	1.486113632323382e-07	5.901106891038996e-08	-9.92009659814362e-07	1.986922453963019e-07	8.500490390545516e-08	-2.588845199474803e-07	-4.432097471252404e-07
0.03	-0.006964141092930027	0.09591723339121373	0.94252110085483	0.1793099028201996	-0.2320584200112297	-0.2605583780822022	-0.0407144084255677	0.07681579145219278	0.07681579145219765	0.1733554288974593	0.1744850307123945	0.03386692030813429	-0.003039241195996058	-0.03016088012255704	-0.02076854378688697	-0.0134577904270655	0.1993400595829482	0.005675578007657574	0.07038718046321399	-0.1371922213463505	0.2394376232006336	0.2394376232006286	-0.07619237532768447	-0.002291706120326495	0.09378259640001721	0.02709648842966902	0.2079074046474781	-0.1894875796825741	-0.04209234563006188	-0.4004034464813996	0.399710489110944	-0.1150856225178862	-0.1047072176892433	-39.19571467647638	80.05536417401946	-26.42814448102426	-6.219556568915195	-41.21147449380252	-679.1740880374866	81.59942075547788	-0.9507921427718996	-0.5750049845192582	-0.439004427640064	6.216468196981822	0.1480715332038806	2.263905190351156	-4.304450279518728	7.605832903439528	7.605832903438807	-2.338008017286584	-0.1113719787086157	3.07665965850676	0.8504819501031643	1.681116526545984e-07	6.423890669608053e-08	-1.119938391923944e-06	2.2437856887967e-07	9.888215166558466e-08	-3.343472975452529e-07	-5.059519373269465e-07
0.04	-0.007314861664601561	0.09568041130052236	0.9423640687998209	0.181615891271411	-0.2319955711574718	-0.2597457402571537	-0.04229715926571963	0.07959096678725357	0.07959096678725326	0.172479770475077	0.1744608799606796	0.03495741984258229	-0.002727340952321231	-0.03991750402561346	-0.02662288619847593	-0.01795706163829818	0.2616099857320207	0.00683555465771371	0.09203845721717174	-0.1791426985762199	0.3152643798726366	0.3152643798726275	-0.09870123899422205	-0.002557511156903386	0.1240971836005996	0.03517346260707224	0.2014585887814043	-0.1995248273990146	-0.03998521785088032	-0.3907756059750681	0.3814801348570029	-0.09937147893640828	-0.09987748541359948	-39.2859616937414	74.87957043643634	-20.62425739134978	-7.014043452702622	-37.84243827220028	-677.6394893446276	91.96285388193634	-1.04515308466568	-0.5982234723678257	-0.469135344014544	6.32231491844087	0.06965898898567716	1.998039317556695	-4.040817040374901	7.636340062105504	7.636340062105762	-2.147796592355709	0.1485804931288477	3.007036985318279	0.7554260280068019	1.873998717909356e-07	6.956631734636392e-08	-1.24631378154727e-06	2.502790735187991e-07	1.123653193027115e-07	-4.080717168920945e-07	-5.681528078729275e-07
0.05	-0.007761618789100116	0.09538474738849835	0.9421616835515704	0.1845370864420854	-0.2319224730933475	-0.2587218958728757	-0.04429140332592066	0.0831147072117593	0.08311470721176813	0.1713855329045653	0.1744354937185146	0.03634515940049943	-0.002337331112978442	-0.04938075718244544	-0.0324839747789195	-0.02253297002018696	0.322303604373902	0.007756013646113321	0.112572227216187	-0.2193663881688936	0.3890962883925636	0.3890962883925517	-0.1199399942558432	-0.002521434851959522	0.1532735602788258	0.04276324050732457	0.1947571670342922	-0.1823791591059755	-0.03825804838004512	-0.3828299328845672	0.3719850820608884	-0.1089878412372817	-0.09458624818422966	-39.39920766347067	71.52134586322228	-25.41289877019857	-6.222899071155171	-35.48000331656485	-676.7931050366785	80.96144279503177	-0.8889156724761447	-0.5761407531040436	-0.4538480966760896	5.894081509691974	0.09889978732633489	2.057387359663404	-3.962186125483413	7.198466115438964	7.198466115438573	-2.081139777538983	-0.06904505701872658	2.846399428779209	0.7507956493616478	1.804045658211591e-07	6.157192398094507e-08	-1.190753249438304e-06	2.303984994334675e-07	1.157192988741876e-07	-4.75237925887976e-07	-5.454913607516903e-07
0.06	-0.008301409293398178	0.09503125475022707	0.9419131333172205	0.1880554570337254	-0.231841038352629	-0.2574974454848924	-0.04667769252339828	0.08736513669516802	0.08736513669516753	0.1700850628245417	0.1744104349881488	0.03801935500914061	-0.001873415098967416	-0.05852417999071782	-0.0381886314479297	-0.02719005885819398	0.3810450699209933	0.008502889976884153	0.1321596579587801	-0.2575517260324358	0.4606021916525956	0.4606021916525875	-0.1399477408964107	-0.002492008794849255	0.1813883937452352	0.04995469754066665	0.188055745287182	-0.1652334908129333	-0.03653087890924973	-0.3748842597940705	0.362490029264767	-0.1186042035381527	-0.08929501095485057	-39.5336316732588	68.2261437891391	-30.21800192896076	-5.397721657000663	-33.2699549091549	-674.9814047731411	69.75026048689374	-0.9811870149543142	-0.566937090080566	-0.4853714352382116	5.93188429948271	0.03494245745987733	1.808771466272191	-3.633146694548929	7.17113901012643	7.171139010127977	-1.901594868144868	0.1472504435622032	2.794728342955564	0.675761854624859	1.723025851100726e-07	5.301661255170718e-08	-1.127532257466925e-06	2.085903009807903e-07	1.186467863165836e-07	-5.421279997111855e-07	-5.19256763412886e-07
0.07000000000000001	-0.008931434757311094	0.09462133214030402	0.9416174322691285	0.1921525647171062	-0.2317531114490327	-0.2560834702470532	-0.04943592739505125	0.09232009349661503	0.09232009349662092	0.1685908539475058	0.1743874043444579	0.03996950442301438	-0.001339633449730157	-0.06742789198796205	-0.04378453507368424	-0.03197271889410493	0.4380889084996382	0.009067386712366211	0.1504903828668978	-0.2938237505777017	0.5300277963301044	0.5300277963300989	-0.158714487014442	-0.00213493543472473	0.2084614786524227	0.0567502100353804	0.1814475096693565	-0.1581663646190532	-0.03460140222443286	-0.3675470710475381	0.3508226933253427	-0.1183786137628075	-0.08414467961578324	-39.68730205152904	64.57076018615281	-30.86088228584847	-5.180065311801898	-30.88049057449559	-673.6595565135889	66.90909524261723	-0.8369865877189597	-0.5541899129798087	-0.478207744285591	5.547512720458676	0.06482220803133994	1.823531742838588	-3.583505677438617	6.774030988051444	6.774030988050827	-1.837432339467062	-0.02311190693987419	2.636630809405269	0.6735794946287006	1.567157798458569e-07	4.322790146628198e-08	-1.009945258207189e-06	1.820740239043186e-07	1.152625116894558e-07	-5.816774642814348e-07	-4.719908910971214e-07
0.08	-0.009648902000292923	0.09415579591129339	0.9412732057293733	0.1968114866029747	-0.2316600157927959	-0.2544905260121853	-0.05254873758073737	0.09795845830313389	0.09795845830313325	0.1669143340381321	0.1743673348965284	0.04218499113492168	-0.0007394699659986953	-0.07601253580965793	-0.04931135526544712	-0.03689515719084876	0.4934079104144143	0.009536640505407973	0.1679534573652961	-0.3284667888399679	0.5972837926671455	0.5972837926671347	-0.1764099473658655	-0.001899769641697816	0.2344558533518138	0.06323106443945868	0.1748392740515385	-0.1510992384251674	-0.03267192553961289	-0.36020988230101	0.3391553573859152	-0.118153023987457	-0.07899434827670598	-39.85808009511074	60.97225778773404	-31.51086703994862	-4.94178473062557	-28.62964651479234	-671.4780998882405	63.8946005345845	-0.9173733798451562	-0.5531204032816842	-0.5133270874048034	5.586916966708837	0.01589386897177647	1.635241384328245	-3.307349437949296	6.737217342032776	6.737217342032793	-1.687337714823181	0.1228689301427483	2.578986301396874	0.6128302364978653	1.406460826749877e-07	3.335961620948986e-08	-8.888507746062696e-07	1.552539998198601e-07	1.114710266062296e-07	-6.194630185772995e-07	-4.233681623312303e-07
